# xmcd CD database file
#
# Track frame offsets:
#	150
#	13990
#	31272
#	45775
#	61718
#	77001
#	94012
#	113463
#	127321
#	140477
#	160005
#	178682
#	192717
#	206240
#	220825
#	239543
#	254397
#	271727
#	285727
#	298830
#	312185
#	325413
#
# Disc length: 4568 seconds
#
# Revision: 0
# Processed by: cddbd v1.5.2PL0 Copyright (c) Steve Scherf et al.
# Submitted via: CDex 1.51
#
DISCID=4711d616
DTITLE=Emerson Drive - (2009) Favorites
DYEAR=2009
DGENRE=Country
TTITLE0=A Good Man
TTITLE1=Believe
TTITLE2=Evidence
TTITLE3=Testify
TTITLE4=If You Were My Girl
TTITLE5=I Love This Road
TTITLE6=Sweet Natural Girl
TTITLE7=Livin' It Up
TTITLE8=Say My Name
TTITLE9=November
TTITLE10=Fishin' In The Dark
TTITLE11=Life Down There
TTITLE12=Life Down There
TTITLE13=Looking Over My Shoulder
TTITLE14=The Extra Mile
TTITLE15=Too Much
TTITLE16=How Lucky I Am
TTITLE17=That Was Us
TTITLE18=Waitin' On Me
TTITLE19=Hollywood Kiss
TTITLE20=It's All About You
TTITLE21=Still Got Yesterday
EXTD=YEAR: 2009
EXTT0=
EXTT1=
EXTT2=
EXTT3=
EXTT4=
EXTT5=
EXTT6=
EXTT7=
EXTT8=
EXTT9=
EXTT10=
EXTT11=
EXTT12=
EXTT13=
EXTT14=
EXTT15=
EXTT16=
EXTT17=
EXTT18=
EXTT19=
EXTT20=
EXTT21=
PLAYORDER=
